<mxfile host="app.diagrams.net" agent="Mozilla/5.0 (X11; Linux x86_64; rv:143.0) Gecko/20100101 Firefox/143.0" version="28.2.7">
  <diagram name="Page 1" id="Page-1">
    <mxGraphModel dx="663" dy="373" grid="1" gridSize="10" guides="1" tooltips="1" connect="1" arrows="1" fold="1" page="1" pageScale="1" pageWidth="827" pageHeight="1169" math="1" shadow="0">
      <root>
        <mxCell id="0" />
        <mxCell id="1" parent="0" />
        <UserObject label="" tags="Ã‰lectrique Lien" id="19">
          <mxCell parent="1" vertex="1" visible="0">
            <mxGeometry as="geometry" />
          </mxCell>
        </UserObject>
        <mxCell id="E3Z7sUTo6VacGubYI9mw-19" value="$$\theta$$" style="text;html=1;whiteSpace=wrap;strokeColor=none;fillColor=none;align=center;verticalAlign=middle;rounded=0;" vertex="1" parent="1">
          <mxGeometry x="114" y="162" width="20" height="20" as="geometry" />
        </mxCell>
        <mxCell id="E3Z7sUTo6VacGubYI9mw-20" value="" style="edgeStyle=none;orthogonalLoop=1;jettySize=auto;html=1;rounded=0;" edge="1" parent="1">
          <mxGeometry width="80" relative="1" as="geometry">
            <mxPoint x="80" y="160" as="sourcePoint" />
            <mxPoint x="240" y="160" as="targetPoint" />
            <Array as="points" />
          </mxGeometry>
        </mxCell>
        <mxCell id="E3Z7sUTo6VacGubYI9mw-21" value="" style="edgeStyle=none;orthogonalLoop=1;jettySize=auto;html=1;rounded=0;" edge="1" parent="1">
          <mxGeometry width="80" relative="1" as="geometry">
            <mxPoint x="80" y="160" as="sourcePoint" />
            <mxPoint x="80" y="260" as="targetPoint" />
            <Array as="points" />
          </mxGeometry>
        </mxCell>
        <mxCell id="E3Z7sUTo6VacGubYI9mw-22" value="" style="edgeStyle=none;orthogonalLoop=1;jettySize=auto;html=1;rounded=0;" edge="1" parent="1">
          <mxGeometry width="80" relative="1" as="geometry">
            <mxPoint x="80" y="160" as="sourcePoint" />
            <mxPoint x="240" y="260" as="targetPoint" />
            <Array as="points" />
          </mxGeometry>
        </mxCell>
        <mxCell id="E3Z7sUTo6VacGubYI9mw-23" value="" style="curved=1;endArrow=none;html=1;rounded=0;endFill=0;" edge="1" parent="1">
          <mxGeometry width="50" height="50" relative="1" as="geometry">
            <mxPoint x="110" y="179" as="sourcePoint" />
            <mxPoint x="114" y="160" as="targetPoint" />
            <Array as="points">
              <mxPoint x="119" y="171" />
            </Array>
          </mxGeometry>
        </mxCell>
        <mxCell id="E3Z7sUTo6VacGubYI9mw-24" value="R" style="text;html=1;whiteSpace=wrap;strokeColor=none;fillColor=none;align=center;verticalAlign=middle;rounded=0;" vertex="1" parent="1">
          <mxGeometry x="212" y="140" width="20" height="20" as="geometry" />
        </mxCell>
        <mxCell id="E3Z7sUTo6VacGubYI9mw-25" value="X&lt;sub&gt;C&lt;/sub&gt;" style="text;html=1;whiteSpace=wrap;strokeColor=none;fillColor=none;align=center;verticalAlign=middle;rounded=0;" vertex="1" parent="1">
          <mxGeometry x="60" y="230" width="20" height="20" as="geometry" />
        </mxCell>
        <mxCell id="E3Z7sUTo6VacGubYI9mw-26" value="Z" style="text;html=1;whiteSpace=wrap;strokeColor=none;fillColor=none;align=center;verticalAlign=middle;rounded=0;" vertex="1" parent="1">
          <mxGeometry x="220" y="230" width="20" height="20" as="geometry" />
        </mxCell>
        <mxCell id="E3Z7sUTo6VacGubYI9mw-35" value="" style="edgeStyle=none;orthogonalLoop=1;jettySize=auto;html=1;rounded=0;strokeWidth=5;" edge="1" parent="1">
          <mxGeometry width="80" relative="1" as="geometry">
            <mxPoint x="250" y="200" as="sourcePoint" />
            <mxPoint x="300" y="200" as="targetPoint" />
            <Array as="points" />
          </mxGeometry>
        </mxCell>
        <mxCell id="E3Z7sUTo6VacGubYI9mw-36" value="" style="edgeStyle=none;orthogonalLoop=1;jettySize=auto;html=1;rounded=0;endArrow=none;endFill=0;dashed=1;" edge="1" parent="1">
          <mxGeometry width="80" relative="1" as="geometry">
            <mxPoint x="80" y="259.76" as="sourcePoint" />
            <mxPoint x="240" y="260" as="targetPoint" />
            <Array as="points" />
          </mxGeometry>
        </mxCell>
        <mxCell id="E3Z7sUTo6VacGubYI9mw-37" value="" style="edgeStyle=none;orthogonalLoop=1;jettySize=auto;html=1;rounded=0;endArrow=none;endFill=0;dashed=1;" edge="1" parent="1">
          <mxGeometry width="80" relative="1" as="geometry">
            <mxPoint x="240" y="159.51" as="sourcePoint" />
            <mxPoint x="240" y="260" as="targetPoint" />
            <Array as="points" />
          </mxGeometry>
        </mxCell>
        <mxCell id="E3Z7sUTo6VacGubYI9mw-38" value="" style="curved=1;endArrow=none;html=1;rounded=0;endFill=0;" edge="1" parent="1">
          <mxGeometry width="50" height="50" relative="1" as="geometry">
            <mxPoint x="80" y="184" as="sourcePoint" />
            <mxPoint x="100" y="160" as="targetPoint" />
            <Array as="points">
              <mxPoint x="101" y="177" />
            </Array>
          </mxGeometry>
        </mxCell>
        <mxCell id="E3Z7sUTo6VacGubYI9mw-39" value="$$-90\unicode{xB0}$$" style="text;html=1;whiteSpace=wrap;strokeColor=none;fillColor=none;align=center;verticalAlign=middle;rounded=0;convertToSvg=0;" vertex="1" parent="1">
          <mxGeometry x="80" y="182" width="40" height="20" as="geometry" />
        </mxCell>
        <mxCell id="E3Z7sUTo6VacGubYI9mw-40" value="$$\theta$$" style="text;html=1;whiteSpace=wrap;strokeColor=none;fillColor=none;align=center;verticalAlign=middle;rounded=0;" vertex="1" parent="1">
          <mxGeometry x="344" y="162" width="20" height="20" as="geometry" />
        </mxCell>
        <mxCell id="E3Z7sUTo6VacGubYI9mw-41" value="" style="edgeStyle=none;orthogonalLoop=1;jettySize=auto;html=1;rounded=0;" edge="1" parent="1">
          <mxGeometry width="80" relative="1" as="geometry">
            <mxPoint x="310" y="160" as="sourcePoint" />
            <mxPoint x="470" y="160" as="targetPoint" />
            <Array as="points" />
          </mxGeometry>
        </mxCell>
        <mxCell id="E3Z7sUTo6VacGubYI9mw-42" value="" style="edgeStyle=none;orthogonalLoop=1;jettySize=auto;html=1;rounded=0;" edge="1" parent="1">
          <mxGeometry width="80" relative="1" as="geometry">
            <mxPoint x="310" y="160" as="sourcePoint" />
            <mxPoint x="310" y="260" as="targetPoint" />
            <Array as="points" />
          </mxGeometry>
        </mxCell>
        <mxCell id="E3Z7sUTo6VacGubYI9mw-43" value="" style="edgeStyle=none;orthogonalLoop=1;jettySize=auto;html=1;rounded=0;" edge="1" parent="1">
          <mxGeometry width="80" relative="1" as="geometry">
            <mxPoint x="310" y="160" as="sourcePoint" />
            <mxPoint x="470" y="260" as="targetPoint" />
            <Array as="points" />
          </mxGeometry>
        </mxCell>
        <mxCell id="E3Z7sUTo6VacGubYI9mw-44" value="" style="curved=1;endArrow=none;html=1;rounded=0;endFill=0;" edge="1" parent="1">
          <mxGeometry width="50" height="50" relative="1" as="geometry">
            <mxPoint x="340" y="179" as="sourcePoint" />
            <mxPoint x="344" y="160" as="targetPoint" />
            <Array as="points">
              <mxPoint x="349" y="171" />
            </Array>
          </mxGeometry>
        </mxCell>
        <mxCell id="E3Z7sUTo6VacGubYI9mw-45" value="P&lt;sub&gt;act&lt;/sub&gt;" style="text;html=1;whiteSpace=wrap;strokeColor=none;fillColor=none;align=center;verticalAlign=middle;rounded=0;" vertex="1" parent="1">
          <mxGeometry x="438" y="140" width="20" height="20" as="geometry" />
        </mxCell>
        <mxCell id="E3Z7sUTo6VacGubYI9mw-46" value="P&lt;sub&gt;r&lt;/sub&gt;" style="text;html=1;whiteSpace=wrap;strokeColor=none;fillColor=none;align=center;verticalAlign=middle;rounded=0;" vertex="1" parent="1">
          <mxGeometry x="290" y="230" width="20" height="20" as="geometry" />
        </mxCell>
        <mxCell id="E3Z7sUTo6VacGubYI9mw-47" value="P&lt;sub&gt;a&lt;/sub&gt;" style="text;html=1;whiteSpace=wrap;strokeColor=none;fillColor=none;align=center;verticalAlign=middle;rounded=0;" vertex="1" parent="1">
          <mxGeometry x="450" y="230" width="20" height="20" as="geometry" />
        </mxCell>
        <mxCell id="E3Z7sUTo6VacGubYI9mw-48" value="" style="edgeStyle=none;orthogonalLoop=1;jettySize=auto;html=1;rounded=0;endArrow=none;endFill=0;dashed=1;" edge="1" parent="1">
          <mxGeometry width="80" relative="1" as="geometry">
            <mxPoint x="310" y="259.76" as="sourcePoint" />
            <mxPoint x="470" y="260" as="targetPoint" />
            <Array as="points" />
          </mxGeometry>
        </mxCell>
        <mxCell id="E3Z7sUTo6VacGubYI9mw-49" value="" style="edgeStyle=none;orthogonalLoop=1;jettySize=auto;html=1;rounded=0;endArrow=none;endFill=0;dashed=1;" edge="1" parent="1">
          <mxGeometry width="80" relative="1" as="geometry">
            <mxPoint x="470" y="159.51" as="sourcePoint" />
            <mxPoint x="470" y="260" as="targetPoint" />
            <Array as="points" />
          </mxGeometry>
        </mxCell>
        <mxCell id="E3Z7sUTo6VacGubYI9mw-50" value="" style="curved=1;endArrow=none;html=1;rounded=0;endFill=0;" edge="1" parent="1">
          <mxGeometry width="50" height="50" relative="1" as="geometry">
            <mxPoint x="310" y="184" as="sourcePoint" />
            <mxPoint x="330" y="160" as="targetPoint" />
            <Array as="points">
              <mxPoint x="331" y="177" />
            </Array>
          </mxGeometry>
        </mxCell>
        <mxCell id="E3Z7sUTo6VacGubYI9mw-51" value="$$-90\unicode{xB0}$$" style="text;html=1;whiteSpace=wrap;strokeColor=none;fillColor=none;align=center;verticalAlign=middle;rounded=0;convertToSvg=0;" vertex="1" parent="1">
          <mxGeometry x="310" y="182" width="40" height="20" as="geometry" />
        </mxCell>
      </root>
    </mxGraphModel>
  </diagram>
</mxfile>
